<svg xmlns="http://www.w3.org/2000/svg" xmlns:xlink="http://www.w3.org/1999/xlink" viewBox="0 0 612.29 858.9"><defs><style>.cls-1,.cls-27{fill:none;}.cls-2{isolation:isolate;}.cls-3{fill:url(#radial-gradient);}.cls-13,.cls-15,.cls-24,.cls-25,.cls-27,.cls-30,.cls-4{mix-blend-mode:overlay;}.cls-4{fill:url(#linear-gradient);}.cls-5{fill:url(#linear-gradient-2);}.cls-6{fill:url(#linear-gradient-3);}.cls-7{fill:url(#linear-gradient-4);}.cls-8{fill:url(#linear-gradient-5);}.cls-9{fill:url(#linear-gradient-6);}.cls-10{fill:url(#linear-gradient-7);}.cls-11{fill:url(#linear-gradient-8);}.cls-12{fill:url(#linear-gradient-9);}.cls-13{fill:url(#linear-gradient-10);}.cls-14{fill:url(#linear-gradient-11);}.cls-15{fill:url(#linear-gradient-12);}.cls-16{fill:url(#linear-gradient-13);}.cls-17{fill:url(#linear-gradient-14);}.cls-18{fill:url(#linear-gradient-15);}.cls-19{fill:url(#linear-gradient-16);}.cls-20{fill:url(#linear-gradient-17);}.cls-21{fill:url(#linear-gradient-18);}.cls-22{fill:url(#linear-gradient-19);}.cls-23{fill:url(#linear-gradient-20);}.cls-24,.cls-25{fill:#010101;}.cls-24,.cls-27{opacity:0.25;}.cls-25{opacity:0.6;}.cls-26{clip-path:url(#clip-path);}.cls-27{stroke:#fff;stroke-miterlimit:10;stroke-width:3px;}.cls-28{fill:url(#linear-gradient-21);}.cls-29{fill:url(#linear-gradient-22);}.cls-30{fill:url(#linear-gradient-23);}.cls-31{fill:#fff;}</style><radialGradient id="radial-gradient" cx="367.42" cy="802.93" r="796.86" gradientUnits="userSpaceOnUse"><stop offset="0" stop-color="#fff"/><stop offset="0.13" stop-color="#f5fbfc"/><stop offset="0.35" stop-color="#dbf0f5"/><stop offset="0.62" stop-color="#b0dfe9"/><stop offset="0.95" stop-color="#76c7d8"/><stop offset="1" stop-color="#6cc3d5"/></radialGradient><linearGradient id="linear-gradient" x1="288.5" y1="-91.08" x2="305.35" y2="500.24" gradientUnits="userSpaceOnUse"><stop offset="0" stop-color="#010101"/><stop offset="1" stop-color="#010101" stop-opacity="0"/></linearGradient><linearGradient id="linear-gradient-2" x1="213.46" y1="100.77" x2="246.25" y2="321.76" gradientUnits="userSpaceOnUse"><stop offset="0" stop-color="#f4fbfd"/><stop offset="1" stop-color="#fff" stop-opacity="0"/></linearGradient><linearGradient id="linear-gradient-3" x1="63.54" y1="312.6" x2="96.34" y2="533.58" xlink:href="#linear-gradient-2"/><linearGradient id="linear-gradient-4" x1="-132.43" y1="338.88" x2="328.27" y2="323.2" xlink:href="#linear-gradient-2"/><linearGradient id="linear-gradient-5" x1="-33.6" y1="262.9" x2="84.04" y2="258.9" xlink:href="#linear-gradient-2"/><linearGradient id="linear-gradient-6" x1="126.6" y1="454.64" x2="618.53" y2="437.91" xlink:href="#linear-gradient-2"/><linearGradient id="linear-gradient-7" x1="263.51" y1="355.03" x2="611.77" y2="343.18" xlink:href="#linear-gradient-2"/><linearGradient id="linear-gradient-8" x1="301.41" y1="846.46" x2="291.43" y2="495.73" gradientUnits="userSpaceOnUse"><stop offset="0" stop-color="#f4fbfd"/><stop offset="1" stop-color="#88cad8"/></linearGradient><linearGradient id="linear-gradient-9" x1="69.02" y1="890.54" x2="88.89" y2="698.9" gradientUnits="userSpaceOnUse"><stop offset="0" stop-color="#376f7a"/><stop offset="1" stop-color="#9acfb4"/></linearGradient><linearGradient id="linear-gradient-10" x1="55.26" y1="813.05" x2="86.63" y2="715.03" xlink:href="#linear-gradient"/><linearGradient id="linear-gradient-11" x1="560.58" y1="848.91" x2="497.84" y2="674.71" xlink:href="#linear-gradient-9"/><linearGradient id="linear-gradient-12" x1="562.2" y1="860.95" x2="520.14" y2="731.2" xlink:href="#linear-gradient"/><linearGradient id="linear-gradient-13" x1="296.66" y1="780.05" x2="706.2" y2="1628.01" gradientUnits="userSpaceOnUse"><stop offset="0" stop-color="#fff"/><stop offset="1" stop-color="#045474"/></linearGradient><linearGradient id="linear-gradient-14" x1="360.34" y1="554.53" x2="-452.33" y2="4549.46" xlink:href="#linear-gradient-13"/><linearGradient id="linear-gradient-15" x1="229.81" y1="1013.5" x2="549.18" y2="283.52" xlink:href="#linear-gradient-13"/><linearGradient id="linear-gradient-16" x1="240.93" y1="702" x2="763.45" y2="752.61" xlink:href="#linear-gradient-13"/><linearGradient id="linear-gradient-17" x1="202.35" y1="643.11" x2="774.07" y2="855.54" xlink:href="#linear-gradient-13"/><linearGradient id="linear-gradient-18" x1="293.63" y1="191.17" x2="299.15" y2="274.22" gradientUnits="userSpaceOnUse"><stop offset="0" stop-color="#ffda67"/><stop offset="1" stop-color="#f99e1c"/></linearGradient><linearGradient id="linear-gradient-19" x1="390.13" y1="261.37" x2="294.61" y2="226.79" xlink:href="#linear-gradient-18"/><linearGradient id="linear-gradient-20" x1="173.41" y1="389.46" x2="1019.23" y2="914.49" xlink:href="#linear-gradient-13"/><clipPath id="clip-path" transform="translate(8.5 8.5)"><path class="cls-1" d="M310.31,219.64c-10.17-18.15-12.08-31.8-12.08-31.8s-1.91,13.65-12.08,31.8-8.86,44.57-8.86,44.57l20.94,4.16,20.94-4.16S320.47,237.79,310.31,219.64Z"/></clipPath><linearGradient id="linear-gradient-21" x1="-48.06" y1="934.82" x2="54.19" y2="785.6" xlink:href="#linear-gradient-9"/><linearGradient id="linear-gradient-22" x1="508.4" y1="872.32" x2="565.22" y2="789.39" xlink:href="#linear-gradient-9"/><linearGradient id="linear-gradient-23" x1="500.26" y1="1063.61" x2="595.43" y2="628.4" xlink:href="#linear-gradient"/></defs><g class="cls-2"><g id="PRINT"><rect class="cls-3" x="8.5" y="8.5" width="595.28" height="841.89"/><path class="cls-4" d="M595.28,0V542.79c-58.84-113.66-159.4-251-303.8-257.52C154.34,279.08,60,368.11,0,459.38V0Z" transform="translate(8.5 8.5)"/><path class="cls-5" d="M145.3,279.86c29.07-4.81,30.89-21.59,48-24.44s18.06,9,18.06,9,6.66-28,25.19-29.94,21.86,36.29,21.86,36.29-1-16.81,15.21-15.86,20.16,38,110.6,37.07c0,0-23.63,3.36-101.09,0s-183.45,1.48-183.45,1.48S118.21,284.34,145.3,279.86Z" transform="translate(8.5 8.5)"/><path class="cls-6" d="M185.82,511s-23.63,3.36-101.09,0C58,509.9,28,509.72,0,510V474c12.21.07,13,9.47,13,9.47s6.65-28,25.18-29.94S60,489.82,60,489.82,59.06,473,75.22,474,95.39,512,185.82,511Z" transform="translate(8.5 8.5)"/><path class="cls-7" d="M308.73,363.86H0V294.43c26.43-2.34,33.2,30.43,33.2,30.43S34.27,310.75,50,312.53c12.91,1.48,14.48,13.79,14.63,18.12.27-3.16,2.39-9.93,16-6.18,17.46,4.82,29.76,28.44,71,30.17S308.73,363.86,308.73,363.86Z" transform="translate(8.5 8.5)"/><path class="cls-8" d="M78.83,262.88H0V258C40.45,260.4,78.83,262.88,78.83,262.88Z" transform="translate(8.5 8.5)"/><path class="cls-9" d="M595.28,411.27v62.58H267.75s115.84-7.49,157.1-9.22,53.55-25.36,71-30.17c13.64-3.76,15.76,3,16,6.18.15-4.32,1.71-16.65,14.62-18.12,15.68-1.78,16.75,12.32,16.75,12.32s7.49-36.2,37.43-29.79A38,38,0,0,1,595.28,411.27Z" transform="translate(8.5 8.5)"/><path class="cls-10" d="M591.39,324.47a32.06,32.06,0,0,1,3.89-.84v40.23h-232s115.84-7.48,157.1-9.22S573.93,329.29,591.39,324.47Z" transform="translate(8.5 8.5)"/><path class="cls-11" d="M595.28,625.72V783.86l-8.31,2c-6.3,1.52-12.76,3.08-19.45,4.63h0l-.33.08h0c-8.14,1.89-16.61,3.78-25.56,5.61-41.48,8.5-93,15.78-166.73,16.27-110,.73-255.87.23-298.79,0h0l-5,0-7.35,0L43.42,809.3l-20.58-3.21L21,805.81,2.35,802.9,0,802.53V632.85H47.91v24.71H85.46V624.77h29l39.2-39.21s24,12.12,43.49-10.21V548.73l20.2,20.2V700.81H326.41V619.54s34.21-25.18,35.64-55.6l14.73-12.83V497.88l14.36,14.36v95s17,44.2,56.93,49.42v29.94H478V651.39h32.32v28.89h15.2V611.94l27.33-27.33v78.66h32.56V625.72Z" transform="translate(8.5 8.5)"/><path class="cls-12" d="M173.85,742.93l-7.92,3.28-14.46,6-141.58.18L0,750.89v-58a44,44,0,0,1,8.64,3L29.32,717.8s13.54-7,27.09-7.42,18.71,13,18.71,13,6.95-10.34,20-10.16,14.26,7.48,14.26,7.48,2.14-5.2,8.73-4.38,7.66,7.77,7.66,7.77,2.5-5.53,8.2-3.39,8,7.85,8,7.85,9.09-7,15.33-4.1C162,726.55,169,736,172.18,740.49,173.22,742,173.85,742.93,173.85,742.93Z" transform="translate(8.5 8.5)"/><path class="cls-13" d="M165.93,746.21l-14.46,6-141.58.18L0,750.89V706.74a44,44,0,0,1,8.64,3L29.32,731.7s13.54-7,27.09-7.42,18.71,13,18.71,13,6.95-10.34,20-10.16,14.26,7.48,14.26,7.48,2.14-5.2,8.73-4.38,7.66,7.77,7.66,7.77,2.5-5.53,8.2-3.39,8,7.85,8,7.85,9.09-7,15.33-4.1C159.81,739.46,163,742.73,165.93,746.21Z" transform="translate(8.5 8.5)"/><path class="cls-14" d="M595.28,700.21v52.17l-32.5,0-106.25-.14-9.42-3.9-13-5.37s.63-1,1.67-2.44C439,736,446,726.55,450.73,724.4c6.23-2.86,15.32,4.1,15.32,4.1s2.32-5.71,8-7.85,8.2,3.39,8.2,3.39,1.07-6.95,7.66-7.77,8.74,4.38,8.74,4.38,1.24-7.3,14.25-7.48,20,10.16,20,10.16,5.17-13.37,18.72-13,27.09,7.42,27.09,7.42Z" transform="translate(8.5 8.5)"/><path class="cls-15" d="M595.28,722.78v30.67l-32.5-1.11-106.93-3.67-9.28-4.21c1.21-1.38,2.49-2.75,3.75-4a20.72,20.72,0,0,1,5.73-4.3c5.53-2.31,13,2.95,14.78,4.3l.4.31.15-.31a15.25,15.25,0,0,1,8.12-7.27c5.78-2,8.09,3.66,8.09,3.66s1.3-6.91,7.91-7.52,8.59,4.67,8.59,4.67,1.48-7.26,14.49-7,19.61,10.8,19.61,10.8,5.61-13.18,19.14-12.32,26.83,8.31,26.83,8.31Z" transform="translate(8.5 8.5)"/><rect class="cls-16" x="8.5" y="748.99" width="595.28" height="101.4"/><rect class="cls-17" x="8.5" y="791.53" width="595.28" height="58.86"/><rect class="cls-18" x="8.5" y="827.65" width="595.28" height="22.74"/><path class="cls-19" d="M388.86,680.28c-50.92,15.1-61.57,60.21-61.57,60.21H266.11s-10.65-45.11-61.56-60.21Z" transform="translate(8.5 8.5)"/><polygon class="cls-20" points="305.21 673.87 202.88 673.87 202.88 688.78 305.21 688.78 407.53 688.78 407.53 673.87 305.21 673.87"/><path class="cls-21" d="M319.17,264.21l-20.94,4.16-20.94-4.16s-1.3-26.42,8.86-44.57,12.08-31.8,12.08-31.8,1.91,13.65,12.08,31.8S319.17,264.21,319.17,264.21Z" transform="translate(8.5 8.5)"/><path class="cls-22" d="M319.17,264.21l-20.94,4.16V187.84s1.91,13.65,12.08,31.8S319.17,264.21,319.17,264.21Z" transform="translate(8.5 8.5)"/><path class="cls-23" d="M313.65,299.2l14.22,366.17H265.53L279.76,299.2c-3.54-6.61-9-14.05-17.07-18.12v-7.35h9.94V269h-3.24v-4.76H324V269h-3.24v4.76h10v7.35C322.68,285.15,317.19,292.59,313.65,299.2Z" transform="translate(8.5 8.5)"/><path class="cls-24" d="M313.65,299.2l14.22,366.17H298.23V264.21H324V269h-3.24v4.76h10v7.35C322.68,285.15,317.19,292.59,313.65,299.2Z" transform="translate(8.5 8.5)"/><path class="cls-25" d="M388.86,680.28c-50.92,15.1-61.57,60.21-61.57,60.21H295.57c4.3-12.48,7.06-27.32,2.66-39.68-3.21-9-9.65-15.68-16.81-20.53Z" transform="translate(8.5 8.5)"/><g class="cls-26"><path class="cls-27" d="M271.55,219.28s45.74-5.15,50.31-35.57" transform="translate(8.5 8.5)"/><path class="cls-27" d="M271.55,234.63s45.74-5.15,50.31-35.56" transform="translate(8.5 8.5)"/><path class="cls-27" d="M271.55,250s45.74-5.15,50.31-35.57" transform="translate(8.5 8.5)"/><path class="cls-27" d="M271.55,265.34s45.74-5.15,50.31-35.56" transform="translate(8.5 8.5)"/><path class="cls-27" d="M271.55,280.7s45.74-5.15,50.31-35.57" transform="translate(8.5 8.5)"/></g><path class="cls-28" d="M71.06,812.49c4.62-1.23,7.46-1.84,7.75-1.89-.15.11-1.11.8-2.72,1.91h0c-2.22,1.54-5.66,3.88-9.89,6.64-11,7.18-27.48,17.15-41.49,22.74H0V808.52c.69-1.82,1.47-3.7,2.35-5.62a92,92,0,0,1,42.71-44.58c-1.34,7-4.93,15.71-9.41,24.71-1.49,3-3.09,6-4.73,9,2.43-3.06,5-6.1,7.76-9,11.16-11.94,24.8-22.13,40.12-24.71.37,8.1-3.56,16.53-9.61,24.71-6.92,9.37-16.61,18.41-25.77,26.27-4.14,3.55-8.17,6.86-11.78,9.85-8,6.65-14,11.7-14.62,14.26a233.08,233.08,0,0,1,32.54-14.26C58.25,816.06,65.81,813.88,71.06,812.49Z" transform="translate(8.5 8.5)"/><path class="cls-29" d="M595.28,799.42v42.47h-20.7c-14-5.59-30.43-15.56-41.48-22.74-7.31-4.76-12.26-8.29-12.62-8.55a249.13,249.13,0,0,1,29.25,8.55,233.08,233.08,0,0,1,32.54,14.26c-.57-2.56-6.57-7.61-14.62-14.26-7.77-6.43-17.47-14.34-26-23A121,121,0,0,1,530.1,783c-6.05-8.18-10-16.61-9.62-24.71,11.18,1.88,21.46,7.82,30.54,15.53A113.71,113.71,0,0,1,560.6,783c2.3,2.46,4.49,5,6.57,7.55h0c.4.5.8,1,1.19,1.49-.29-.52-.57-1-.85-1.57h0q-.78-1.44-1.53-2.88c-.8-1.53-1.58-3.07-2.34-4.59-4.48-9-8.08-17.75-9.41-24.71A92.31,92.31,0,0,1,584.79,783c.76.94,1.49,1.89,2.18,2.84A92.19,92.19,0,0,1,595.28,799.42Z" transform="translate(8.5 8.5)"/><path class="cls-30" d="M595.28,841.89h-1.2c-17.17-37.13-73.6-83.57-73.6-83.57A96.13,96.13,0,0,1,551,773.85a106.59,106.59,0,0,1,15,13.77C588.35,812.44,595.28,841.89,595.28,841.89Z" transform="translate(8.5 8.5)"/><path class="cls-31" d="M-8.5-8.5V850.39H603.78V-8.5ZM583.28,829.89H12V12H583.28Z" transform="translate(8.5 8.5)"/></g></g></svg>